STARTFONT 2.1
FONT -FontForge-Fontdiner Swanky-Book-R-Normal--9-90-72-72-P-56-ISO10646-1
SIZE 9 72 72
FONTBOUNDINGBOX 13 13 -2 -4
COMMENT "Generated by fontforge, http://fontforge.sourceforge.net"
COMMENT "Copyright (c) 2010 by Font Diner, Inc. All rights reserved."
STARTPROPERTIES 39
FOUNDRY "FontForge"
FAMILY_NAME "Fontdiner Swanky"
WEIGHT_NAME "Book"
SLANT "R"
SETWIDTH_NAME "Normal"
ADD_STYLE_NAME ""
PIXEL_SIZE 9
POINT_SIZE 90
RESOLUTION_X 72
RESOLUTION_Y 72
SPACING "P"
AVERAGE_WIDTH 56
CHARSET_REGISTRY "ISO10646"
CHARSET_ENCODING "1"
FONTNAME_REGISTRY ""
CHARSET_COLLECTIONS "ISO10646-1"
FONT_NAME "FontdinerSwanky-Regular"
FACE_NAME "Fontdiner Swanky Regular"
COPYRIGHT "Copyright (c) 2010 by Font Diner, Inc. All rights reserved."
FONT_VERSION "1.001"
FONT_ASCENT 7
FONT_DESCENT 2
UNDERLINE_POSITION -1
UNDERLINE_THICKNESS 1
X_HEIGHT 4
CAP_HEIGHT 5
RAW_ASCENT 799
RAW_DESCENT 200
NORM_SPACE 3
RELATIVE_WEIGHT 40
RELATIVE_SETWIDTH 50
SUPERSCRIPT_X 0
SUPERSCRIPT_Y 4
SUPERSCRIPT_SIZE 5
SUBSCRIPT_X 0
SUBSCRIPT_Y 1
SUBSCRIPT_SIZE 5
AVG_LOWERCASE_WIDTH 56
AVG_UPPERCASE_WIDTH 69
ENDPROPERTIES
CHARS 231
STARTCHAR space
ENCODING 32
SWIDTH 320 0
DWIDTH 3 0
BBX 1 1 0 0
BITMAP
00
ENDCHAR
STARTCHAR exclam
ENCODING 33
SWIDTH 305 0
DWIDTH 3 0
BBX 3 8 0 0
BITMAP
40
60
40
40
40
40
00
C0
ENDCHAR
STARTCHAR quotedbl
ENCODING 34
SWIDTH 369 0
DWIDTH 3 0
BBX 3 2 0 4
BITMAP
E0
A0
ENDCHAR
STARTCHAR numbersign
ENCODING 35
SWIDTH 702 0
DWIDTH 6 0
BBX 6 6 0 0
BITMAP
28
FC
48
7C
FC
58
ENDCHAR
STARTCHAR dollar
ENCODING 36
SWIDTH 545 0
DWIDTH 5 0
BBX 5 8 0 -1
BITMAP
20
28
D0
C8
70
98
F0
20
ENDCHAR
STARTCHAR percent
ENCODING 37
SWIDTH 657 0
DWIDTH 6 0
BBX 6 7 0 0
BITMAP
48
B8
D0
10
20
3C
6C
ENDCHAR
STARTCHAR ampersand
ENCODING 38
SWIDTH 668 0
DWIDTH 6 0
BBX 7 8 0 -1
BITMAP
30
50
50
28
74
DA
7C
10
ENDCHAR
STARTCHAR quotesingle
ENCODING 39
SWIDTH 177 0
DWIDTH 2 0
BBX 2 2 0 4
BITMAP
C0
80
ENDCHAR
STARTCHAR parenleft
ENCODING 40
SWIDTH 384 0
DWIDTH 3 0
BBX 4 9 0 -1
BITMAP
10
60
40
40
C0
C0
40
40
30
ENDCHAR
STARTCHAR parenright
ENCODING 41
SWIDTH 375 0
DWIDTH 3 0
BBX 3 9 0 -1
BITMAP
80
40
60
20
20
20
60
40
C0
ENDCHAR
STARTCHAR asterisk
ENCODING 42
SWIDTH 640 0
DWIDTH 6 0
BBX 6 6 0 0
BITMAP
50
78
F4
FC
78
50
ENDCHAR
STARTCHAR plus
ENCODING 43
SWIDTH 607 0
DWIDTH 5 0
BBX 5 6 0 0
BITMAP
20
20
F8
F8
20
20
ENDCHAR
STARTCHAR comma
ENCODING 44
SWIDTH 226 0
DWIDTH 2 0
BBX 2 3 0 -2
BITMAP
C0
C0
80
ENDCHAR
STARTCHAR hyphen
ENCODING 45
SWIDTH 549 0
DWIDTH 5 0
BBX 3 2 1 2
BITMAP
E0
E0
ENDCHAR
STARTCHAR period
ENCODING 46
SWIDTH 226 0
DWIDTH 2 0
BBX 2 2 0 -1
BITMAP
C0
C0
ENDCHAR
STARTCHAR slash
ENCODING 47
SWIDTH 600 0
DWIDTH 5 0
BBX 6 9 0 -1
BITMAP
08
0C
18
30
20
60
40
C0
80
ENDCHAR
STARTCHAR zero
ENCODING 48
SWIDTH 740 0
DWIDTH 7 0
BBX 6 6 0 0
BITMAP
38
4C
C4
C4
44
78
ENDCHAR
STARTCHAR one
ENCODING 49
SWIDTH 503 0
DWIDTH 5 0
BBX 6 7 -1 0
BITMAP
08
F0
10
10
10
10
7C
ENDCHAR
STARTCHAR two
ENCODING 50
SWIDTH 638 0
DWIDTH 6 0
BBX 5 7 0 0
BITMAP
80
F8
48
88
38
48
F8
ENDCHAR
STARTCHAR three
ENCODING 51
SWIDTH 620 0
DWIDTH 6 0
BBX 5 8 0 -1
BITMAP
80
F8
88
98
F8
88
F8
80
ENDCHAR
STARTCHAR four
ENCODING 52
SWIDTH 606 0
DWIDTH 5 0
BBX 5 8 0 -1
BITMAP
10
10
30
58
D8
F8
18
78
ENDCHAR
STARTCHAR five
ENCODING 53
SWIDTH 610 0
DWIDTH 6 0
BBX 5 7 0 0
BITMAP
08
F8
88
F8
08
88
F8
ENDCHAR
STARTCHAR six
ENCODING 54
SWIDTH 619 0
DWIDTH 6 0
BBX 6 8 0 -1
BITMAP
08
78
C8
F8
C8
CC
C8
30
ENDCHAR
STARTCHAR seven
ENCODING 55
SWIDTH 598 0
DWIDTH 5 0
BBX 6 6 0 0
BITMAP
FC
98
98
10
10
7C
ENDCHAR
STARTCHAR eight
ENCODING 56
SWIDTH 642 0
DWIDTH 6 0
BBX 6 7 0 -1
BITMAP
78
C8
48
F8
CC
CC
78
ENDCHAR
STARTCHAR nine
ENCODING 57
SWIDTH 610 0
DWIDTH 6 0
BBX 5 7 0 -1
BITMAP
F8
C8
C8
78
88
78
80
ENDCHAR
STARTCHAR colon
ENCODING 58
SWIDTH 223 0
DWIDTH 2 0
BBX 2 4 0 -1
BITMAP
C0
00
C0
C0
ENDCHAR
STARTCHAR semicolon
ENCODING 59
SWIDTH 228 0
DWIDTH 2 0
BBX 2 5 0 -2
BITMAP
C0
00
80
C0
80
ENDCHAR
STARTCHAR less
ENCODING 60
SWIDTH 563 0
DWIDTH 5 0
BBX 5 6 0 0
BITMAP
08
38
F0
60
30
08
ENDCHAR
STARTCHAR equal
ENCODING 61
SWIDTH 531 0
DWIDTH 5 0
BBX 5 3 0 1
BITMAP
F8
00
F8
ENDCHAR
STARTCHAR greater
ENCODING 62
SWIDTH 576 0
DWIDTH 5 0
BBX 5 6 0 0
BITMAP
80
E0
38
18
60
80
ENDCHAR
STARTCHAR question
ENCODING 63
SWIDTH 592 0
DWIDTH 5 0
BBX 5 8 0 0
BITMAP
80
F0
88
08
78
40
00
C0
ENDCHAR
STARTCHAR at
ENCODING 64
SWIDTH 792 0
DWIDTH 7 0
BBX 7 6 0 0
BITMAP
3C
5A
AA
BA
AA
7C
ENDCHAR
STARTCHAR A
ENCODING 65
SWIDTH 788 0
DWIDTH 7 0
BBX 10 8 -1 -2
BITMAP
3800
0C00
1400
1600
3E00
2300
F3C0
0600
ENDCHAR
STARTCHAR B
ENCODING 66
SWIDTH 774 0
DWIDTH 7 0
BBX 8 7 -1 -1
BITMAP
FE
33
33
3C
33
37
F8
ENDCHAR
STARTCHAR C
ENCODING 67
SWIDTH 766 0
DWIDTH 7 0
BBX 7 8 0 -1
BITMAP
02
7E
44
C2
C0
C2
64
1A
ENDCHAR
STARTCHAR D
ENCODING 68
SWIDTH 833 0
DWIDTH 8 0
BBX 9 6 -1 0
BITMAP
FE00
1100
1180
1100
1100
7E00
ENDCHAR
STARTCHAR E
ENCODING 69
SWIDTH 781 0
DWIDTH 7 0
BBX 8 7 -1 0
BITMAP
03
FD
35
35
3D
35
FE
ENDCHAR
STARTCHAR F
ENCODING 70
SWIDTH 731 0
DWIDTH 7 0
BBX 7 7 -1 -1
BITMAP
FE
36
36
3C
34
30
4C
ENDCHAR
STARTCHAR G
ENCODING 71
SWIDTH 828 0
DWIDTH 7 0
BBX 8 7 0 0
BITMAP
02
7E
42
C2
DF
C6
7E
ENDCHAR
STARTCHAR H
ENCODING 72
SWIDTH 797 0
DWIDTH 7 0
BBX 9 7 -1 -1
BITMAP
FF80
2200
2200
3E00
2200
2780
F800
ENDCHAR
STARTCHAR I
ENCODING 73
SWIDTH 445 0
DWIDTH 4 0
BBX 6 7 -1 -1
BITMAP
FC
30
30
30
30
30
7C
ENDCHAR
STARTCHAR J
ENCODING 74
SWIDTH 718 0
DWIDTH 6 0
BBX 8 8 -1 -1
BITMAP
01
3E
04
06
06
F6
26
3C
ENDCHAR
STARTCHAR K
ENCODING 75
SWIDTH 934 0
DWIDTH 8 0
BBX 11 8 -1 -1
BITMAP
DC00
33C0
3600
3C00
3600
3300
7980
07E0
ENDCHAR
STARTCHAR L
ENCODING 76
SWIDTH 712 0
DWIDTH 6 0
BBX 7 7 -1 0
BITMAP
FC
30
30
12
12
12
7E
ENDCHAR
STARTCHAR M
ENCODING 77
SWIDTH 1033 0
DWIDTH 9 0
BBX 11 7 -1 0
BITMAP
C0E0
3180
3980
2B80
2F80
1580
FFE0
ENDCHAR
STARTCHAR N
ENCODING 78
SWIDTH 840 0
DWIDTH 8 0
BBX 10 7 -1 0
BITMAP
C7C0
3900
3900
2D00
2700
2300
FD00
ENDCHAR
STARTCHAR O
ENCODING 79
SWIDTH 808 0
DWIDTH 7 0
BBX 7 6 0 0
BITMAP
10
6C
C6
C6
C6
7C
ENDCHAR
STARTCHAR P
ENCODING 80
SWIDTH 746 0
DWIDTH 7 0
BBX 8 6 -1 0
BITMAP
FC
33
33
3C
30
FC
ENDCHAR
STARTCHAR Q
ENCODING 81
SWIDTH 789 0
DWIDTH 7 0
BBX 8 9 0 -3
BITMAP
38
44
C6
C6
44
38
08
0F
30
ENDCHAR
STARTCHAR R
ENCODING 82
SWIDTH 826 0
DWIDTH 7 0
BBX 11 8 -1 -2
BITMAP
FC00
3300
3300
3C00
3200
7B00
05E0
0200
ENDCHAR
STARTCHAR S
ENCODING 83
SWIDTH 661 0
DWIDTH 6 0
BBX 6 7 0 -1
BITMAP
74
CC
F4
7C
8C
78
80
ENDCHAR
STARTCHAR T
ENCODING 84
SWIDTH 754 0
DWIDTH 7 0
BBX 6 6 0 0
BITMAP
FC
94
94
10
10
7C
ENDCHAR
STARTCHAR U
ENCODING 85
SWIDTH 725 0
DWIDTH 7 0
BBX 8 6 -1 0
BITMAP
FF
22
22
22
22
3C
ENDCHAR
STARTCHAR V
ENCODING 86
SWIDTH 786 0
DWIDTH 7 0
BBX 9 8 -1 -1
BITMAP
0800
F780
3200
3200
1C00
1C00
0800
0800
ENDCHAR
STARTCHAR W
ENCODING 87
SWIDTH 1026 0
DWIDTH 9 0
BBX 12 7 -1 -1
BITMAP
F9F0
2440
3680
1780
1B00
1900
0900
ENDCHAR
STARTCHAR X
ENCODING 88
SWIDTH 860 0
DWIDTH 8 0
BBX 10 6 -1 0
BITMAP
4C80
3700
1C00
0C00
1600
FFC0
ENDCHAR
STARTCHAR Y
ENCODING 89
SWIDTH 848 0
DWIDTH 8 0
BBX 9 7 -1 -1
BITMAP
FC00
3380
1A00
0C00
0C00
0C00
3F00
ENDCHAR
STARTCHAR Z
ENCODING 90
SWIDTH 685 0
DWIDTH 6 0
BBX 6 6 0 0
BITMAP
14
EC
98
B4
64
FC
ENDCHAR
STARTCHAR bracketleft
ENCODING 91
SWIDTH 380 0
DWIDTH 3 0
BBX 3 8 1 -1
BITMAP
E0
80
80
80
80
80
80
E0
ENDCHAR
STARTCHAR backslash
ENCODING 92
SWIDTH 680 0
DWIDTH 6 0
BBX 6 9 0 -1
BITMAP
40
C0
60
20
30
18
08
0C
08
ENDCHAR
STARTCHAR bracketright
ENCODING 93
SWIDTH 371 0
DWIDTH 3 0
BBX 4 8 -1 -1
BITMAP
F0
10
10
10
10
10
10
70
ENDCHAR
STARTCHAR asciicircum
ENCODING 94
SWIDTH 671 0
DWIDTH 6 0
BBX 6 5 0 3
BITMAP
20
30
70
68
C4
ENDCHAR
STARTCHAR underscore
ENCODING 95
SWIDTH 840 0
DWIDTH 8 0
BBX 8 2 0 -1
BITMAP
FF
FF
ENDCHAR
STARTCHAR grave
ENCODING 96
SWIDTH 707 0
DWIDTH 6 0
BBX 1 2 3 5
BITMAP
80
80
ENDCHAR
STARTCHAR a
ENCODING 97
SWIDTH 572 0
DWIDTH 5 0
BBX 6 5 0 0
BITMAP
70
D8
78
D8
7C
ENDCHAR
STARTCHAR b
ENCODING 98
SWIDTH 723 0
DWIDTH 7 0
BBX 7 8 -1 -1
BITMAP
F0
30
30
30
3C
22
22
7C
ENDCHAR
STARTCHAR c
ENCODING 99
SWIDTH 589 0
DWIDTH 5 0
BBX 5 5 0 -1
BITMAP
78
C8
C8
68
30
ENDCHAR
STARTCHAR d
ENCODING 100
SWIDTH 713 0
DWIDTH 6 0
BBX 7 8 0 -1
BITMAP
1C
04
04
34
4C
CC
4C
3E
ENDCHAR
STARTCHAR e
ENCODING 101
SWIDTH 593 0
DWIDTH 5 0
BBX 5 5 0 -1
BITMAP
78
C8
F8
48
30
ENDCHAR
STARTCHAR f
ENCODING 102
SWIDTH 507 0
DWIDTH 5 0
BBX 5 13 0 -4
BITMAP
10
28
68
60
F0
60
20
20
20
20
A0
A0
40
ENDCHAR
STARTCHAR g
ENCODING 103
SWIDTH 606 0
DWIDTH 5 0
BBX 6 10 0 -4
BITMAP
08
3C
48
C8
C8
70
70
C8
8C
F8
ENDCHAR
STARTCHAR h
ENCODING 104
SWIDTH 678 0
DWIDTH 6 0
BBX 8 9 -1 -1
BITMAP
F0
30
20
20
38
26
26
76
0F
ENDCHAR
STARTCHAR i
ENCODING 105
SWIDTH 393 0
DWIDTH 4 0
BBX 4 7 0 0
BITMAP
60
60
E0
60
60
20
F0
ENDCHAR
STARTCHAR j
ENCODING 106
SWIDTH 385 0
DWIDTH 3 0
BBX 4 10 -1 -3
BITMAP
20
20
00
70
30
10
10
10
D0
70
ENDCHAR
STARTCHAR k
ENCODING 107
SWIDTH 749 0
DWIDTH 7 0
BBX 9 8 -1 -1
BITMAP
F000
3F80
3400
3800
3C00
2400
7B00
0680
ENDCHAR
STARTCHAR l
ENCODING 108
SWIDTH 369 0
DWIDTH 3 0
BBX 5 9 -1 -1
BITMAP
F0
30
30
30
20
20
20
20
78
ENDCHAR
STARTCHAR m
ENCODING 109
SWIDTH 990 0
DWIDTH 9 0
BBX 11 4 -1 1
BITMAP
FD80
3680
2480
7FE0
ENDCHAR
STARTCHAR n
ENCODING 110
SWIDTH 643 0
DWIDTH 6 0
BBX 8 4 -1 1
BITMAP
FC
36
26
7F
ENDCHAR
STARTCHAR o
ENCODING 111
SWIDTH 705 0
DWIDTH 6 0
BBX 6 4 0 0
BITMAP
7C
C4
C4
78
ENDCHAR
STARTCHAR p
ENCODING 112
SWIDTH 723 0
DWIDTH 7 0
BBX 7 7 -1 -2
BITMAP
F0
3E
32
32
3C
30
F8
ENDCHAR
STARTCHAR q
ENCODING 113
SWIDTH 682 0
DWIDTH 6 0
BBX 7 7 0 -2
BITMAP
3E
C8
88
C8
38
08
3E
ENDCHAR
STARTCHAR r
ENCODING 114
SWIDTH 595 0
DWIDTH 5 0
BBX 7 5 -1 0
BITMAP
FE
34
30
10
7C
ENDCHAR
STARTCHAR s
ENCODING 115
SWIDTH 533 0
DWIDTH 5 0
BBX 5 6 0 0
BITMAP
08
F0
C8
70
98
F0
ENDCHAR
STARTCHAR t
ENCODING 116
SWIDTH 422 0
DWIDTH 4 0
BBX 4 8 0 0
BITMAP
20
40
F0
40
40
40
50
70
ENDCHAR
STARTCHAR u
ENCODING 117
SWIDTH 614 0
DWIDTH 6 0
BBX 7 4 -1 0
BITMAP
FC
24
24
3E
ENDCHAR
STARTCHAR v
ENCODING 118
SWIDTH 639 0
DWIDTH 6 0
BBX 8 6 -1 -1
BITMAP
F0
2F
34
18
18
08
ENDCHAR
STARTCHAR w
ENCODING 119
SWIDTH 805 0
DWIDTH 7 0
BBX 10 5 -1 0
BITMAP
FBC0
2D00
3E00
1600
1400
ENDCHAR
STARTCHAR x
ENCODING 120
SWIDTH 717 0
DWIDTH 6 0
BBX 8 5 -1 0
BITMAP
F9
36
18
1C
FF
ENDCHAR
STARTCHAR y
ENCODING 121
SWIDTH 655 0
DWIDTH 6 0
BBX 7 9 -1 -4
BITMAP
D8
26
66
66
3C
04
04
64
38
ENDCHAR
STARTCHAR z
ENCODING 122
SWIDTH 549 0
DWIDTH 5 0
BBX 5 5 0 0
BITMAP
F8
90
B8
68
F8
ENDCHAR
STARTCHAR braceleft
ENCODING 123
SWIDTH 708 0
DWIDTH 6 0
BBX 5 8 1 -1
BITMAP
78
60
60
E0
60
60
60
70
ENDCHAR
STARTCHAR bar
ENCODING 124
SWIDTH 304 0
DWIDTH 3 0
BBX 1 9 1 -1
BITMAP
80
80
80
80
80
80
80
80
80
ENDCHAR
STARTCHAR braceright
ENCODING 125
SWIDTH 517 0
DWIDTH 5 0
BBX 5 8 0 -1
BITMAP
E0
20
20
38
20
20
20
E0
ENDCHAR
STARTCHAR asciitilde
ENCODING 126
SWIDTH 466 0
DWIDTH 4 0
BBX 4 2 0 2
BITMAP
D0
F0
ENDCHAR
STARTCHAR uni00A0
ENCODING 160
SWIDTH 320 0
DWIDTH 3 0
BBX 1 1 0 0
BITMAP
00
ENDCHAR
STARTCHAR exclamdown
ENCODING 161
SWIDTH 305 0
DWIDTH 3 0
BBX 3 8 0 -3
BITMAP
60
00
40
40
40
C0
C0
C0
ENDCHAR
STARTCHAR cent
ENCODING 162
SWIDTH 417 0
DWIDTH 4 0
BBX 4 7 0 -1
BITMAP
60
60
90
80
D0
20
60
ENDCHAR
STARTCHAR sterling
ENCODING 163
SWIDTH 658 0
DWIDTH 6 0
BBX 6 7 0 0
BITMAP
04
3C
4C
F4
24
F4
7C
ENDCHAR
STARTCHAR currency
ENCODING 164
SWIDTH 358 0
DWIDTH 3 0
BBX 3 3 0 2
BITMAP
E0
A0
E0
ENDCHAR
STARTCHAR yen
ENCODING 165
SWIDTH 796 0
DWIDTH 7 0
BBX 8 6 -1 0
BITMAP
F5
32
1C
3C
3C
3E
ENDCHAR
STARTCHAR brokenbar
ENCODING 166
SWIDTH 304 0
DWIDTH 3 0
BBX 1 9 1 -1
BITMAP
80
80
80
80
00
80
80
80
80
ENDCHAR
STARTCHAR section
ENCODING 167
SWIDTH 646 0
DWIDTH 6 0
BBX 5 11 0 -3
BITMAP
78
C8
C8
78
58
C8
78
98
48
F8
80
ENDCHAR
STARTCHAR dieresis
ENCODING 168
SWIDTH 708 0
DWIDTH 6 0
BBX 3 2 2 7
BITMAP
C0
E0
ENDCHAR
STARTCHAR copyright
ENCODING 169
SWIDTH 700 0
DWIDTH 6 0
BBX 6 6 0 0
BITMAP
78
B4
A4
AC
5C
30
ENDCHAR
STARTCHAR ordfeminine
ENCODING 170
SWIDTH 399 0
DWIDTH 4 0
BBX 4 4 0 3
BITMAP
E0
60
E0
30
ENDCHAR
STARTCHAR guillemotleft
ENCODING 171
SWIDTH 424 0
DWIDTH 4 0
BBX 4 5 0 0
BITMAP
50
50
A0
E0
50
ENDCHAR
STARTCHAR logicalnot
ENCODING 172
SWIDTH 541 0
DWIDTH 5 0
BBX 5 4 0 1
BITMAP
88
F8
88
98
ENDCHAR
STARTCHAR sfthyphen
ENCODING 173
SWIDTH 530 0
DWIDTH 5 0
BBX 5 2 0 2
BITMAP
F8
F8
ENDCHAR
STARTCHAR registered
ENCODING 174
SWIDTH 700 0
DWIDTH 6 0
BBX 6 6 0 0
BITMAP
78
94
AC
A4
5C
30
ENDCHAR
STARTCHAR macron
ENCODING 175
SWIDTH 705 0
DWIDTH 6 0
BBX 3 1 2 7
BITMAP
E0
ENDCHAR
STARTCHAR degree
ENCODING 176
SWIDTH 364 0
DWIDTH 3 0
BBX 3 2 0 4
BITMAP
E0
60
ENDCHAR
STARTCHAR plusminus
ENCODING 177
SWIDTH 607 0
DWIDTH 5 0
BBX 5 6 0 0
BITMAP
20
A0
F8
20
C0
F8
ENDCHAR
STARTCHAR twosuperior
ENCODING 178
SWIDTH 440 0
DWIDTH 4 0
BBX 4 5 0 3
BITMAP
E0
90
B0
D0
F0
ENDCHAR
STARTCHAR threesuperior
ENCODING 179
SWIDTH 442 0
DWIDTH 4 0
BBX 4 5 0 3
BITMAP
E0
90
60
90
E0
ENDCHAR
STARTCHAR acute
ENCODING 180
SWIDTH 694 0
DWIDTH 6 0
BBX 1 2 3 7
BITMAP
80
80
ENDCHAR
STARTCHAR mu
ENCODING 181
SWIDTH 1000 0
DWIDTH 9 0
BBX 7 6 0 -2
BITMAP
FC
64
64
7E
60
60
ENDCHAR
STARTCHAR paragraph
ENCODING 182
SWIDTH 782 0
DWIDTH 7 0
BBX 7 6 0 0
BITMAP
7E
98
F8
18
18
FE
ENDCHAR
STARTCHAR periodcentered
ENCODING 183
SWIDTH 226 0
DWIDTH 2 0
BBX 2 1 0 3
BITMAP
C0
ENDCHAR
STARTCHAR cedilla
ENCODING 184
SWIDTH 780 0
DWIDTH 7 0
BBX 3 3 2 -2
BITMAP
40
A0
C0
ENDCHAR
STARTCHAR onesuperior
ENCODING 185
SWIDTH 390 0
DWIDTH 4 0
BBX 3 5 0 3
BITMAP
E0
60
60
20
E0
ENDCHAR
STARTCHAR ordmasculine
ENCODING 186
SWIDTH 449 0
DWIDTH 4 0
BBX 4 3 0 4
BITMAP
E0
90
F0
ENDCHAR
STARTCHAR guillemotright
ENCODING 187
SWIDTH 415 0
DWIDTH 4 0
BBX 4 5 0 0
BITMAP
A0
A0
70
60
A0
ENDCHAR
STARTCHAR onequarter
ENCODING 188
SWIDTH 918 0
DWIDTH 8 0
BBX 8 9 0 -1
BITMAP
E3
62
64
2D
EA
1B
17
2B
6F
ENDCHAR
STARTCHAR onehalf
ENCODING 189
SWIDTH 1007 0
DWIDTH 9 0
BBX 9 9 0 -1
BITMAP
E300
6200
6400
2C00
EC00
1B80
1480
2380
6780
ENDCHAR
STARTCHAR threequarters
ENCODING 190
SWIDTH 936 0
DWIDTH 8 0
BBX 8 9 0 -1
BITMAP
E3
92
66
95
EA
1B
17
2B
27
ENDCHAR
STARTCHAR questiondown
ENCODING 191
SWIDTH 568 0
DWIDTH 5 0
BBX 5 8 0 -3
BITMAP
18
00
10
70
80
88
78
08
ENDCHAR
STARTCHAR Agrave
ENCODING 192
SWIDTH 788 0
DWIDTH 7 0
BBX 10 11 -1 -2
BITMAP
1800
0800
0000
3800
0C00
1400
1600
3E00
2300
F3C0
0600
ENDCHAR
STARTCHAR Aacute
ENCODING 193
SWIDTH 788 0
DWIDTH 7 0
BBX 10 11 -1 -2
BITMAP
0C00
0800
0000
3800
0C00
1400
1600
3E00
2300
F3C0
0600
ENDCHAR
STARTCHAR Acircumflex
ENCODING 194
SWIDTH 788 0
DWIDTH 7 0
BBX 10 10 -1 -2
BITMAP
0800
1400
3800
0C00
1400
1600
3E00
2300
F3C0
0600
ENDCHAR
STARTCHAR Atilde
ENCODING 195
SWIDTH 788 0
DWIDTH 7 0
BBX 10 10 -1 -2
BITMAP
1C00
1400
3800
0C00
1400
1600
3E00
2300
F3C0
0600
ENDCHAR
STARTCHAR Adieresis
ENCODING 196
SWIDTH 788 0
DWIDTH 7 0
BBX 10 10 -1 -2
BITMAP
1400
1400
3800
0C00
1400
1600
3E00
2300
F3C0
0600
ENDCHAR
STARTCHAR Aring
ENCODING 197
SWIDTH 788 0
DWIDTH 7 0
BBX 10 10 -1 -2
BITMAP
0800
1400
3800
0C00
1400
1600
3E00
2300
F3C0
0600
ENDCHAR
STARTCHAR AE
ENCODING 198
SWIDTH 1019 0
DWIDTH 9 0
BBX 11 8 -2 -1
BITMAP
0060
1FA0
0AA0
0AA0
13A0
3EA0
67E0
9800
ENDCHAR
STARTCHAR Ccedilla
ENCODING 199
SWIDTH 766 0
DWIDTH 7 0
BBX 7 10 0 -3
BITMAP
02
7E
44
C2
C0
C2
64
1A
30
30
ENDCHAR
STARTCHAR Egrave
ENCODING 200
SWIDTH 781 0
DWIDTH 7 0
BBX 8 9 -1 0
BITMAP
18
08
03
FD
35
35
3D
35
FE
ENDCHAR
STARTCHAR Eacute
ENCODING 201
SWIDTH 781 0
DWIDTH 7 0
BBX 8 9 -1 0
BITMAP
0C
08
03
FD
35
35
3D
35
FE
ENDCHAR
STARTCHAR Ecircumflex
ENCODING 202
SWIDTH 781 0
DWIDTH 7 0
BBX 8 9 -1 0
BITMAP
08
14
03
FD
35
35
3D
35
FE
ENDCHAR
STARTCHAR Edieresis
ENCODING 203
SWIDTH 781 0
DWIDTH 7 0
BBX 8 9 -1 0
BITMAP
14
14
03
FD
35
35
3D
35
FE
ENDCHAR
STARTCHAR Igrave
ENCODING 204
SWIDTH 445 0
DWIDTH 4 0
BBX 6 10 -1 -1
BITMAP
20
10
84
78
30
30
30
30
30
7C
ENDCHAR
STARTCHAR Iacute
ENCODING 205
SWIDTH 445 0
DWIDTH 4 0
BBX 6 10 -1 -1
BITMAP
10
10
84
78
30
30
30
30
30
7C
ENDCHAR
STARTCHAR Icircumflex
ENCODING 206
SWIDTH 445 0
DWIDTH 4 0
BBX 6 10 -1 -1
BITMAP
30
28
84
78
30
30
30
30
30
7C
ENDCHAR
STARTCHAR Idieresis
ENCODING 207
SWIDTH 445 0
DWIDTH 4 0
BBX 6 9 -1 -1
BITMAP
30
B4
78
30
30
30
30
30
7C
ENDCHAR
STARTCHAR Eth
ENCODING 208
SWIDTH 1000 0
DWIDTH 9 0
BBX 9 6 0 0
BITMAP
FE00
1100
1180
7D80
1100
7E00
ENDCHAR
STARTCHAR Ntilde
ENCODING 209
SWIDTH 840 0
DWIDTH 8 0
BBX 10 9 -1 0
BITMAP
1C00
1400
C7C0
3900
3900
2D00
2700
2300
FD00
ENDCHAR
STARTCHAR Ograve
ENCODING 210
SWIDTH 808 0
DWIDTH 7 0
BBX 7 8 0 0
BITMAP
10
18
10
6C
C6
C6
C6
7C
ENDCHAR
STARTCHAR Oacute
ENCODING 211
SWIDTH 808 0
DWIDTH 7 0
BBX 7 8 0 0
BITMAP
08
10
10
6C
C6
C6
C6
7C
ENDCHAR
STARTCHAR Ocircumflex
ENCODING 212
SWIDTH 808 0
DWIDTH 7 0
BBX 7 8 0 0
BITMAP
10
28
10
6C
C6
C6
C6
7C
ENDCHAR
STARTCHAR Otilde
ENCODING 213
SWIDTH 808 0
DWIDTH 7 0
BBX 7 8 0 0
BITMAP
38
28
10
6C
C6
C6
C6
7C
ENDCHAR
STARTCHAR Odieresis
ENCODING 214
SWIDTH 808 0
DWIDTH 7 0
BBX 7 8 0 0
BITMAP
28
28
10
6C
C6
C6
C6
7C
ENDCHAR
STARTCHAR multiply
ENCODING 215
SWIDTH 556 0
DWIDTH 5 0
BBX 5 5 0 1
BITMAP
40
D8
70
70
D8
ENDCHAR
STARTCHAR Oslash
ENCODING 216
SWIDTH 808 0
DWIDTH 7 0
BBX 7 8 0 -1
BITMAP
04
14
6C
DE
D6
F6
7C
40
ENDCHAR
STARTCHAR Ugrave
ENCODING 217
SWIDTH 725 0
DWIDTH 7 0
BBX 8 8 -1 0
BITMAP
18
08
FF
22
22
22
22
3C
ENDCHAR
STARTCHAR Uacute
ENCODING 218
SWIDTH 725 0
DWIDTH 7 0
BBX 8 9 -1 0
BITMAP
08
08
00
FF
22
22
22
22
3C
ENDCHAR
STARTCHAR Ucircumflex
ENCODING 219
SWIDTH 725 0
DWIDTH 7 0
BBX 8 8 -1 0
BITMAP
08
14
FF
22
22
22
22
3C
ENDCHAR
STARTCHAR Udieresis
ENCODING 220
SWIDTH 725 0
DWIDTH 7 0
BBX 8 8 -1 0
BITMAP
14
14
FF
22
22
22
22
3C
ENDCHAR
STARTCHAR Yacute
ENCODING 221
SWIDTH 848 0
DWIDTH 8 0
BBX 9 10 -1 -1
BITMAP
0600
0400
0000
FC00
3380
1A00
0C00
0C00
0C00
3F00
ENDCHAR
STARTCHAR Thorn
ENCODING 222
SWIDTH 745 0
DWIDTH 7 0
BBX 8 6 -1 0
BITMAP
FC
3C
33
33
3C
FC
ENDCHAR
STARTCHAR germandbls
ENCODING 223
SWIDTH 986 0
DWIDTH 9 0
BBX 9 12 0 -4
BITMAP
3C00
2400
6600
E400
6C00
2C00
2700
2B80
2D80
AA00
A000
4000
ENDCHAR
STARTCHAR agrave
ENCODING 224
SWIDTH 572 0
DWIDTH 5 0
BBX 6 7 0 0
BITMAP
30
10
70
D8
78
D8
7C
ENDCHAR
STARTCHAR aacute
ENCODING 225
SWIDTH 572 0
DWIDTH 5 0
BBX 6 8 0 0
BITMAP
10
30
00
70
D8
78
D8
7C
ENDCHAR
STARTCHAR acircumflex
ENCODING 226
SWIDTH 572 0
DWIDTH 5 0
BBX 6 8 0 0
BITMAP
30
48
00
70
D8
78
D8
7C
ENDCHAR
STARTCHAR atilde
ENCODING 227
SWIDTH 572 0
DWIDTH 5 0
BBX 6 7 0 0
BITMAP
30
50
70
D8
78
D8
7C
ENDCHAR
STARTCHAR adieresis
ENCODING 228
SWIDTH 572 0
DWIDTH 5 0
BBX 6 7 0 0
BITMAP
50
70
70
D8
78
D8
7C
ENDCHAR
STARTCHAR aring
ENCODING 229
SWIDTH 572 0
DWIDTH 5 0
BBX 6 7 0 0
BITMAP
30
30
70
D8
78
D8
7C
ENDCHAR
STARTCHAR ae
ENCODING 230
SWIDTH 1022 0
DWIDTH 9 0
BBX 9 5 0 0
BITMAP
7300
DD80
7F80
9C80
7F00
ENDCHAR
STARTCHAR ccedilla
ENCODING 231
SWIDTH 589 0
DWIDTH 5 0
BBX 5 7 0 -3
BITMAP
78
C8
C8
68
30
30
30
ENDCHAR
STARTCHAR egrave
ENCODING 232
SWIDTH 593 0
DWIDTH 5 0
BBX 5 8 0 -1
BITMAP
30
10
00
78
C8
F8
48
30
ENDCHAR
STARTCHAR eacute
ENCODING 233
SWIDTH 593 0
DWIDTH 5 0
BBX 5 8 0 -1
BITMAP
10
30
00
78
C8
F8
48
30
ENDCHAR
STARTCHAR ecircumflex
ENCODING 234
SWIDTH 593 0
DWIDTH 5 0
BBX 5 8 0 -1
BITMAP
30
48
00
78
C8
F8
48
30
ENDCHAR
STARTCHAR edieresis
ENCODING 235
SWIDTH 593 0
DWIDTH 5 0
BBX 5 7 0 -1
BITMAP
30
30
78
C8
F8
48
30
ENDCHAR
STARTCHAR igrave
ENCODING 236
SWIDTH 393 0
DWIDTH 4 0
BBX 4 7 0 0
BITMAP
40
20
E0
60
60
20
F0
ENDCHAR
STARTCHAR iacute
ENCODING 237
SWIDTH 393 0
DWIDTH 4 0
BBX 4 8 0 0
BITMAP
20
20
00
E0
60
60
20
F0
ENDCHAR
STARTCHAR icircumflex
ENCODING 238
SWIDTH 393 0
DWIDTH 4 0
BBX 4 7 0 0
BITMAP
60
90
E0
60
60
20
F0
ENDCHAR
STARTCHAR idieresis
ENCODING 239
SWIDTH 393 0
DWIDTH 4 0
BBX 4 7 0 0
BITMAP
60
70
E0
60
60
20
F0
ENDCHAR
STARTCHAR eth
ENCODING 240
SWIDTH 672 0
DWIDTH 6 0
BBX 6 8 0 -1
BITMAP
6C
30
68
3C
CC
84
CC
78
ENDCHAR
STARTCHAR ntilde
ENCODING 241
SWIDTH 643 0
DWIDTH 6 0
BBX 8 6 -1 1
BITMAP
1C
28
FC
36
26
7F
ENDCHAR
STARTCHAR ograve
ENCODING 242
SWIDTH 705 0
DWIDTH 6 0
BBX 6 7 0 0
BITMAP
30
10
00
7C
C4
C4
78
ENDCHAR
STARTCHAR oacute
ENCODING 243
SWIDTH 705 0
DWIDTH 6 0
BBX 6 7 0 0
BITMAP
10
10
00
7C
C4
C4
78
ENDCHAR
STARTCHAR ocircumflex
ENCODING 244
SWIDTH 705 0
DWIDTH 6 0
BBX 6 7 0 0
BITMAP
10
28
00
7C
C4
C4
78
ENDCHAR
STARTCHAR otilde
ENCODING 245
SWIDTH 705 0
DWIDTH 6 0
BBX 6 7 0 0
BITMAP
38
30
00
7C
C4
C4
78
ENDCHAR
STARTCHAR odieresis
ENCODING 246
SWIDTH 705 0
DWIDTH 6 0
BBX 6 7 0 0
BITMAP
28
28
00
7C
C4
C4
78
ENDCHAR
STARTCHAR divide
ENCODING 247
SWIDTH 504 0
DWIDTH 5 0
BBX 4 5 0 0
BITMAP
60
00
F0
00
60
ENDCHAR
STARTCHAR oslash
ENCODING 248
SWIDTH 705 0
DWIDTH 6 0
BBX 6 6 0 -1
BITMAP
0C
7C
D4
F4
78
40
ENDCHAR
STARTCHAR ugrave
ENCODING 249
SWIDTH 614 0
DWIDTH 6 0
BBX 7 7 -1 0
BITMAP
10
18
D0
2C
24
24
3E
ENDCHAR
STARTCHAR uacute
ENCODING 250
SWIDTH 614 0
DWIDTH 6 0
BBX 7 7 -1 0
BITMAP
08
18
D0
2C
24
24
3E
ENDCHAR
STARTCHAR ucircumflex
ENCODING 251
SWIDTH 614 0
DWIDTH 6 0
BBX 7 7 -1 0
BITMAP
18
28
D0
2C
24
24
3E
ENDCHAR
STARTCHAR udieresis
ENCODING 252
SWIDTH 614 0
DWIDTH 6 0
BBX 7 7 -1 0
BITMAP
28
38
D0
2C
24
24
3E
ENDCHAR
STARTCHAR yacute
ENCODING 253
SWIDTH 655 0
DWIDTH 6 0
BBX 7 12 -1 -4
BITMAP
08
18
00
D8
26
66
66
3C
04
04
64
38
ENDCHAR
STARTCHAR thorn
ENCODING 254
SWIDTH 734 0
DWIDTH 7 0
BBX 8 10 -1 -4
BITMAP
F0
30
30
3E
33
33
3E
30
30
7C
ENDCHAR
STARTCHAR ydieresis
ENCODING 255
SWIDTH 655 0
DWIDTH 6 0
BBX 7 11 -1 -4
BITMAP
28
38
D8
26
66
66
3C
04
04
64
38
ENDCHAR
STARTCHAR dotlessi
ENCODING 305
SWIDTH 393 0
DWIDTH 4 0
BBX 4 5 0 0
BITMAP
E0
60
60
20
F0
ENDCHAR
STARTCHAR Lslash
ENCODING 321
SWIDTH 713 0
DWIDTH 6 0
BBX 7 7 -1 0
BITMAP
FC
30
3C
72
52
12
7E
ENDCHAR
STARTCHAR lslash
ENCODING 322
SWIDTH 365 0
DWIDTH 3 0
BBX 5 9 -1 -1
BITMAP
F0
30
20
38
60
60
20
20
78
ENDCHAR
STARTCHAR OE
ENCODING 338
SWIDTH 1195 0
DWIDTH 11 0
BBX 10 7 0 0
BITMAP
0040
1FC0
7EC0
CEC0
8FC0
CEC0
3FC0
ENDCHAR
STARTCHAR oe
ENCODING 339
SWIDTH 1087 0
DWIDTH 10 0
BBX 10 5 0 -1
BITMAP
7F80
8CC0
8FC0
7CC0
0300
ENDCHAR
STARTCHAR Scaron
ENCODING 352
SWIDTH 661 0
DWIDTH 6 0
BBX 6 10 0 -1
BITMAP
78
10
00
74
CC
F4
7C
8C
78
80
ENDCHAR
STARTCHAR scaron
ENCODING 353
SWIDTH 533 0
DWIDTH 5 0
BBX 5 8 0 0
BITMAP
70
20
08
F0
C8
70
98
F0
ENDCHAR
STARTCHAR Ydieresis
ENCODING 376
SWIDTH 848 0
DWIDTH 8 0
BBX 9 9 -1 -1
BITMAP
0C00
0C00
F400
3380
1A00
0C00
0C00
0C00
3F00
ENDCHAR
STARTCHAR Zcaron
ENCODING 381
SWIDTH 685 0
DWIDTH 6 0
BBX 6 8 0 0
BITMAP
38
10
14
EC
98
B4
64
FC
ENDCHAR
STARTCHAR zcaron
ENCODING 382
SWIDTH 549 0
DWIDTH 5 0
BBX 5 7 0 0
BITMAP
70
20
F8
90
B8
68
F8
ENDCHAR
STARTCHAR circumflex
ENCODING 710
SWIDTH 714 0
DWIDTH 6 0
BBX 3 2 2 6
BITMAP
40
A0
ENDCHAR
STARTCHAR caron
ENCODING 711
SWIDTH 714 0
DWIDTH 6 0
BBX 3 2 2 6
BITMAP
E0
40
ENDCHAR
STARTCHAR breve
ENCODING 728
SWIDTH 715 0
DWIDTH 6 0
BBX 3 1 2 7
BITMAP
E0
ENDCHAR
STARTCHAR dotaccent
ENCODING 729
SWIDTH 708 0
DWIDTH 6 0
BBX 1 2 3 7
BITMAP
80
80
ENDCHAR
STARTCHAR ring
ENCODING 730
SWIDTH 704 0
DWIDTH 6 0
BBX 1 2 3 6
BITMAP
80
80
ENDCHAR
STARTCHAR ogonek
ENCODING 731
SWIDTH 988 0
DWIDTH 9 0
BBX 3 2 3 -1
BITMAP
80
E0
ENDCHAR
STARTCHAR tilde
ENCODING 732
SWIDTH 707 0
DWIDTH 6 0
BBX 3 2 2 6
BITMAP
E0
A0
ENDCHAR
STARTCHAR hungarumlaut
ENCODING 733
SWIDTH 671 0
DWIDTH 6 0
BBX 3 2 2 7
BITMAP
A0
E0
ENDCHAR
STARTCHAR endash
ENCODING 8211
SWIDTH 576 0
DWIDTH 5 0
BBX 4 1 1 3
BITMAP
F0
ENDCHAR
STARTCHAR emdash
ENCODING 8212
SWIDTH 993 0
DWIDTH 9 0
BBX 7 1 1 3
BITMAP
FE
ENDCHAR
STARTCHAR quoteleft
ENCODING 8216
SWIDTH 261 0
DWIDTH 2 0
BBX 2 3 0 4
BITMAP
40
40
C0
ENDCHAR
STARTCHAR quoteright
ENCODING 8217
SWIDTH 301 0
DWIDTH 3 0
BBX 2 3 0 4
BITMAP
40
40
C0
ENDCHAR
STARTCHAR quotesinglbase
ENCODING 8218
SWIDTH 332 0
DWIDTH 3 0
BBX 2 3 0 -1
BITMAP
40
C0
40
ENDCHAR
STARTCHAR quotedblleft
ENCODING 8220
SWIDTH 477 0
DWIDTH 4 0
BBX 4 3 0 4
BITMAP
50
50
F0
ENDCHAR
STARTCHAR quotedblright
ENCODING 8221
SWIDTH 477 0
DWIDTH 4 0
BBX 4 3 0 4
BITMAP
A0
70
E0
ENDCHAR
STARTCHAR quotedblbase
ENCODING 8222
SWIDTH 477 0
DWIDTH 4 0
BBX 4 3 0 -1
BITMAP
50
F0
A0
ENDCHAR
STARTCHAR dagger
ENCODING 8224
SWIDTH 487 0
DWIDTH 4 0
BBX 4 11 0 -3
BITMAP
20
20
20
F0
20
20
20
20
20
20
20
ENDCHAR
STARTCHAR daggerdbl
ENCODING 8225
SWIDTH 497 0
DWIDTH 4 0
BBX 4 11 0 -3
BITMAP
20
20
20
F0
20
F0
20
20
20
20
20
ENDCHAR
STARTCHAR bullet
ENCODING 8226
SWIDTH 275 0
DWIDTH 2 0
BBX 2 3 0 2
BITMAP
40
C0
C0
ENDCHAR
STARTCHAR ellipsis
ENCODING 8230
SWIDTH 787 0
DWIDTH 7 0
BBX 7 2 0 -1
BITMAP
D6
D6
ENDCHAR
STARTCHAR perthousand
ENCODING 8240
SWIDTH 888 0
DWIDTH 8 0
BBX 8 7 0 0
BITMAP
48
B8
D0
30
20
3F
5F
ENDCHAR
STARTCHAR guilsinglleft
ENCODING 8249
SWIDTH 234 0
DWIDTH 2 0
BBX 2 5 0 0
BITMAP
40
40
80
C0
40
ENDCHAR
STARTCHAR guilsinglright
ENCODING 8250
SWIDTH 223 0
DWIDTH 2 0
BBX 2 5 0 0
BITMAP
80
80
40
40
80
ENDCHAR
STARTCHAR fraction
ENCODING 8260
SWIDTH 600 0
DWIDTH 5 0
BBX 6 9 0 -1
BITMAP
08
0C
18
10
30
60
40
C0
80
ENDCHAR
STARTCHAR Euro
ENCODING 8364
SWIDTH 590 0
DWIDTH 5 0
BBX 5 6 0 0
BITMAP
38
48
F0
F8
68
30
ENDCHAR
STARTCHAR trademark
ENCODING 8482
SWIDTH 624 0
DWIDTH 6 0
BBX 6 4 0 3
BITMAP
40
C0
B8
FC
ENDCHAR
STARTCHAR minus
ENCODING 8722
SWIDTH 549 0
DWIDTH 5 0
BBX 5 2 0 2
BITMAP
F8
F8
ENDCHAR
STARTCHAR fi
ENCODING 64257
SWIDTH 757 0
DWIDTH 7 0
BBX 7 13 0 -4
BITMAP
18
2C
6C
64
FC
64
24
24
3E
20
A0
A0
40
ENDCHAR
STARTCHAR fl
ENCODING 64258
SWIDTH 776 0
DWIDTH 7 0
BBX 7 13 0 -4
BITMAP
18
2C
64
64
F4
64
24
24
24
2E
A0
A0
40
ENDCHAR
STARTCHAR .notdef
ENCODING -1
SWIDTH 320 0
DWIDTH 3 0
BBX 1 1 0 0
BITMAP
00
ENDCHAR
ENDFONT
